<svg aria-hidden="true" style="width:0;height:0;position:absolute;overflow:hidden" xmlns="http://www.w3.org/2000/svg"><defs><symbol id="icon-menu" viewBox="0 0 40 40" xmlns="http://www.w3.org/2000/svg"><path fill-rule="evenodd" clip-rule="evenodd" d="M8 14.667V12h24v2.667H8Zm0 6.666h24v-2.666H8v2.666ZM8 28h24v-2.667H8V28Z"/></symbol><symbol id="icon-cross" viewBox="0 0 40 40" xmlns="http://www.w3.org/2000/svg"><path d="M29.667 12.88 27.787 11l-7.454 7.453L12.88 11 11 12.88l7.453 7.453L11 27.787l1.88 1.88 7.453-7.454 7.454 7.454 1.88-1.88-7.454-7.454 7.454-7.453Z"/></symbol><symbol id="icon-close-btn" viewBox="0 0 18 18" xmlns="http://www.w3.org/2000/svg"><path d="M15 4.108 13.892 3 9.5 7.392 5.108 3 4 4.108 8.392 8.5 4 12.892 5.108 14 9.5 9.608 13.892 14 15 12.892 10.608 8.5 15 4.108Z"/></symbol><svg id="vector" viewBox="0 0 7 11" xmlns="http://www.w3.org/2000/svg"><path d="M1.952 1.294 6 5.53 1.952 9.765" stroke="#000" stroke-width="2" stroke-linecap="round" stroke-linejoin="round"/></svg></defs></svg>