<svg aria-hidden="true" style="position: absolute; width: 0; height: 0; overflow: hidden;" version="1.1"
    xmlns="http://www.w3.org/2000/svg"
    xmlns:xlink="http://www.w3.org/1999/xlink">
    <defs>

        <symbol id="icon-menu" viewBox="0 0 40 40"
            xmlns="http://www.w3.org/2000/svg">
            <path fill-rule="evenodd" clip-rule="evenodd" d="M8 14.6667V12H32V14.6667H8ZM8 21.3333H32V18.6667H8V21.3333ZM8 28H32V25.3333H8V28Z" />
        </symbol>

        <symbol id="icon-cross" viewBox="0 0 40 40"
            xmlns="http://www.w3.org/2000/svg">
            <path d="M29.6667 12.88L27.7867 11L20.3333 18.4533L12.88 11L11 12.88L18.4533 20.3333L11 27.7867L12.88 29.6667L20.3333 22.2133L27.7867 29.6667L29.6667 27.7867L22.2133 20.3333L29.6667 12.88Z" />
        </symbol>

        <symbol id="icon-close-btn" viewBox="0 0 18 18"
            xmlns="http://www.w3.org/2000/svg">
            <path d="M15 4.10786L13.8921 3L9.5 7.39214L5.10786 3L4 4.10786L8.39214 8.5L4 12.8921L5.10786 14L9.5 9.60786L13.8921 14L15 12.8921L10.6079 8.5L15 4.10786Z" />
        </symbol>

        <svg id="vector" viewBox="0 0 7 11"
            xmlns="http://www.w3.org/2000/svg">
            <path d="M1.95166 1.29419L5.99985 5.52948L1.95166 9.76478" stroke="black" stroke-width="2" stroke-linecap="round" stroke-linejoin="round"/>
        </svg>



<symbol id="chevron" viewBox="0 0 20 20">
<path d="M9.163 4.516c0.418 0.408 4.502 4.695 4.502 4.695 0.223 0.219 0.335 0.504 0.335 0.789s-0.112 0.57-0.335 0.787c0 0-4.084 4.289-4.502 4.695-0.418 0.408-1.17 0.436-1.615 0-0.446-0.434-0.481-1.041 0-1.574l3.747-3.908-3.747-3.908c-0.481-0.533-0.446-1.141 0-1.576s1.197-0.409 1.615 0z"></path>
</symbol>

    </defs>


</svg>

